<?xml version="1.0" encoding="utf-8"?>
<!-- Generator: Adobe Illustrator 18.0.0, SVG Export Plug-In . SVG Version: 6.00 Build 0)  -->
<!DOCTYPE svg PUBLIC "-//W3C//DTD SVG 1.1//EN" "http://www.w3.org/Graphics/SVG/1.1/DTD/svg11.dtd">
<svg version="1.1" id="Layer_1" xmlns="http://www.w3.org/2000/svg" xmlns:xlink="http://www.w3.org/1999/xlink" x="0px" y="0px"
	 viewBox="0 0 30 25.9" enable-background="new 0 0 30 25.9" xml:space="preserve">
<g>
	<path d="M28.9,23.5h-0.7v-1c0-0.6-0.5-1.2-1.1-1.2c-0.6,0-1.1,0.5-1.1,1.2v1h-6.7v-1c0-0.6-0.5-1.2-1.1-1.2s-1.1,0.5-1.1,1.2v1
		h-6.7v-1c0-0.6-0.5-1.2-1.1-1.2c-0.6,0-1.1,0.5-1.1,1.2v1H2.3v-5.1l3.5-4.2c0.4-0.5,0.3-1.2-0.1-1.6c-0.5-0.4-1.2-0.3-1.6,0.1
		l-1.7,2.1V1.9c0-0.6-0.5-1.2-1.1-1.2C0.5,0.7,0,1.2,0,1.9v22.8c0,0.6,0.5,1.2,1.1,1.2h27.7c0.6,0,1.1-0.5,1.1-1.2
		C30,24,29.5,23.5,28.9,23.5z"/>
	<path d="M9,13.8c0.9,0,1.7-0.4,2.3-1l1.9,1.1c0.2,0.1,0.4,0.1,0.5,0.1c0.4,0,0.8-0.2,1-0.6c0.3-0.6,0.1-1.3-0.4-1.6l-2.1-1.2
		c0,0,0-0.1,0-0.1c0-1.8-1.4-3.3-3.2-3.3c-1.8,0-3.2,1.5-3.2,3.3C5.8,12.4,7.3,13.8,9,13.8z M9,9.6c0.5,0,0.9,0.4,0.9,0.9
		c0,0.5-0.4,0.9-0.9,0.9c-0.5,0-0.9-0.4-0.9-0.9C8.1,10,8.5,9.6,9,9.6z"/>
	<path d="M18,18.7c1.8,0,3.2-1.5,3.2-3.3c0-0.6-0.2-1.2-0.5-1.7l3.5-5.4c0.3-0.5,0.2-1.3-0.3-1.6c-0.5-0.4-1.2-0.2-1.6,0.3L19,12.2
		c-0.3-0.1-0.6-0.1-0.9-0.1c-1.8,0-3.2,1.5-3.2,3.3C14.8,17.2,16.3,18.7,18,18.7z M18,14.4c0.5,0,0.9,0.4,0.9,0.9
		c0,0.5-0.4,0.9-0.9,0.9c-0.5,0-0.9-0.4-0.9-0.9C17.1,14.9,17.5,14.4,18,14.4z"/>
	<path d="M25.9,6.6c1.8,0,3.2-1.5,3.2-3.3c0-1.8-1.4-3.3-3.2-3.3c-1.8,0-3.2,1.5-3.2,3.3C22.8,5.1,24.2,6.6,25.9,6.6z M25.9,2.3
		c0.5,0,0.9,0.4,0.9,0.9c0,0.5-0.4,0.9-0.9,0.9c-0.5,0-0.9-0.4-0.9-0.9C25,2.8,25.4,2.3,25.9,2.3z"/>
</g>
</svg>
