<?xml version="1.0" encoding="utf-8"?>
<!-- Generator: Adobe Illustrator 18.0.0, SVG Export Plug-In . SVG Version: 6.00 Build 0)  -->
<!DOCTYPE svg PUBLIC "-//W3C//DTD SVG 1.1//EN" "http://www.w3.org/Graphics/SVG/1.1/DTD/svg11.dtd">
<svg version="1.1" id="Layer_1" xmlns="http://www.w3.org/2000/svg" xmlns:xlink="http://www.w3.org/1999/xlink" x="0px" y="0px"
	 viewBox="0 0 34 29" enable-background="new 0 0 34 29" xml:space="preserve">
<g>
	<path d="M6.5,14.9l5.4,4.7c0.9,0.5,2,0.5,2.7-0.2L32.8,4.7c0.8-0.6,1.7,0.5,1,1.1L15.9,23c-1.4,1.4-3.6,1.4-5,0l-5.2-7.2
		C5.1,15.3,5.8,14.4,6.5,14.9z M29.1,28v-7.5c0-0.6-0.5-1-1-1c-0.6,0-1,0.5-1,1V27H2V2h25v1.6c0,0.6,0.5,1,1,1c0.6,0,1-0.5,1-1V1
		c0-0.5-0.4-1-1-1H1C0.4,0,0,0.4,0,1v27c0,0.5,0.4,1,1,1h27.1C28.6,29,29.1,28.6,29.1,28z"/>
</g>
</svg>
